<mxfile host="Electron" modified="2023-07-05T05:07:56.860Z" agent="Mozilla/5.0 (Windows NT 10.0; Win64; x64) AppleWebKit/537.36 (KHTML, like Gecko) draw.io/21.5.0 Chrome/112.0.5615.204 Electron/24.5.1 Safari/537.36" etag="yXGqyRCbFzrsW-4c1q2H" version="21.5.0" type="device">
  <diagram name="Page-1" id="gvFpnIqVw8FhLhii-Kk1">
    <mxGraphModel dx="594" dy="540" grid="1" gridSize="10" guides="1" tooltips="1" connect="1" arrows="1" fold="1" page="1" pageScale="1" pageWidth="850" pageHeight="1100" math="0" shadow="0">
      <root>
        <mxCell id="0" />
        <mxCell id="1" parent="0" />
        <mxCell id="Svl2cvum7UI4GpYgN7TW-1" value="Hash Search" style="shape=process;whiteSpace=wrap;html=1;backgroundOutline=1;fontStyle=1;fontSize=20;" vertex="1" parent="1">
          <mxGeometry x="200" y="40" width="240" height="40" as="geometry" />
        </mxCell>
        <mxCell id="Svl2cvum7UI4GpYgN7TW-2" value="" style="rounded=0;whiteSpace=wrap;html=1;" vertex="1" parent="1">
          <mxGeometry x="100" y="210" width="40" height="40" as="geometry" />
        </mxCell>
        <mxCell id="Svl2cvum7UI4GpYgN7TW-3" value="0" style="rounded=0;whiteSpace=wrap;html=1;strokeColor=none;" vertex="1" parent="1">
          <mxGeometry x="100" y="190" width="40" height="20" as="geometry" />
        </mxCell>
        <mxCell id="Svl2cvum7UI4GpYgN7TW-4" value="" style="rounded=0;whiteSpace=wrap;html=1;" vertex="1" parent="1">
          <mxGeometry x="140" y="210" width="40" height="40" as="geometry" />
        </mxCell>
        <mxCell id="Svl2cvum7UI4GpYgN7TW-5" value="1" style="rounded=0;whiteSpace=wrap;html=1;strokeColor=none;" vertex="1" parent="1">
          <mxGeometry x="140" y="190" width="40" height="20" as="geometry" />
        </mxCell>
        <mxCell id="Svl2cvum7UI4GpYgN7TW-6" value="" style="rounded=0;whiteSpace=wrap;html=1;" vertex="1" parent="1">
          <mxGeometry x="180" y="210" width="40" height="40" as="geometry" />
        </mxCell>
        <mxCell id="Svl2cvum7UI4GpYgN7TW-7" value="2" style="rounded=0;whiteSpace=wrap;html=1;strokeColor=none;" vertex="1" parent="1">
          <mxGeometry x="180" y="190" width="40" height="20" as="geometry" />
        </mxCell>
        <mxCell id="Svl2cvum7UI4GpYgN7TW-8" value="" style="rounded=0;whiteSpace=wrap;html=1;" vertex="1" parent="1">
          <mxGeometry x="220" y="210" width="40" height="40" as="geometry" />
        </mxCell>
        <mxCell id="Svl2cvum7UI4GpYgN7TW-9" value="3" style="rounded=0;whiteSpace=wrap;html=1;strokeColor=none;" vertex="1" parent="1">
          <mxGeometry x="220" y="190" width="40" height="20" as="geometry" />
        </mxCell>
        <mxCell id="Svl2cvum7UI4GpYgN7TW-10" value="" style="rounded=0;whiteSpace=wrap;html=1;" vertex="1" parent="1">
          <mxGeometry x="260" y="210" width="40" height="40" as="geometry" />
        </mxCell>
        <mxCell id="Svl2cvum7UI4GpYgN7TW-11" value="4" style="rounded=0;whiteSpace=wrap;html=1;strokeColor=none;" vertex="1" parent="1">
          <mxGeometry x="260" y="190" width="40" height="20" as="geometry" />
        </mxCell>
        <mxCell id="Svl2cvum7UI4GpYgN7TW-12" value="" style="rounded=0;whiteSpace=wrap;html=1;" vertex="1" parent="1">
          <mxGeometry x="300" y="210" width="40" height="40" as="geometry" />
        </mxCell>
        <mxCell id="Svl2cvum7UI4GpYgN7TW-13" value="5" style="rounded=0;whiteSpace=wrap;html=1;strokeColor=none;" vertex="1" parent="1">
          <mxGeometry x="300" y="190" width="40" height="20" as="geometry" />
        </mxCell>
        <mxCell id="Svl2cvum7UI4GpYgN7TW-14" value="" style="rounded=0;whiteSpace=wrap;html=1;" vertex="1" parent="1">
          <mxGeometry x="340" y="210" width="40" height="40" as="geometry" />
        </mxCell>
        <mxCell id="Svl2cvum7UI4GpYgN7TW-15" value="6" style="rounded=0;whiteSpace=wrap;html=1;strokeColor=none;" vertex="1" parent="1">
          <mxGeometry x="340" y="190" width="40" height="20" as="geometry" />
        </mxCell>
        <mxCell id="Svl2cvum7UI4GpYgN7TW-16" value="11" style="ellipse;whiteSpace=wrap;html=1;aspect=fixed;fillColor=#dae8fc;strokeColor=#6c8ebf;" vertex="1" parent="1">
          <mxGeometry x="100" y="130" width="40" height="40" as="geometry" />
        </mxCell>
        <mxCell id="Svl2cvum7UI4GpYgN7TW-17" value="15" style="ellipse;whiteSpace=wrap;html=1;aspect=fixed;fillColor=#dae8fc;strokeColor=#6c8ebf;" vertex="1" parent="1">
          <mxGeometry x="180" y="130" width="40" height="40" as="geometry" />
        </mxCell>
        <mxCell id="Svl2cvum7UI4GpYgN7TW-18" value="23" style="ellipse;whiteSpace=wrap;html=1;aspect=fixed;fillColor=#dae8fc;strokeColor=#6c8ebf;" vertex="1" parent="1">
          <mxGeometry x="260" y="130" width="40" height="40" as="geometry" />
        </mxCell>
        <mxCell id="Svl2cvum7UI4GpYgN7TW-19" value="26" style="ellipse;whiteSpace=wrap;html=1;aspect=fixed;fillColor=#dae8fc;strokeColor=#6c8ebf;" vertex="1" parent="1">
          <mxGeometry x="340" y="130" width="40" height="40" as="geometry" />
        </mxCell>
        <mxCell id="Svl2cvum7UI4GpYgN7TW-21" value="&amp;nbsp;공을 넣을&amp;nbsp;&lt;br&gt;방번호" style="rounded=0;whiteSpace=wrap;html=1;fillColor=#f8cecc;strokeColor=#b85450;" vertex="1" parent="1">
          <mxGeometry x="40" y="320" width="80" height="80" as="geometry" />
        </mxCell>
        <mxCell id="Svl2cvum7UI4GpYgN7TW-22" value="공의 숫자" style="rounded=0;whiteSpace=wrap;html=1;fillColor=#dae8fc;strokeColor=#6c8ebf;" vertex="1" parent="1">
          <mxGeometry x="200" y="320" width="80" height="80" as="geometry" />
        </mxCell>
        <mxCell id="Svl2cvum7UI4GpYgN7TW-23" value="방의 수&lt;br&gt;7" style="rounded=0;whiteSpace=wrap;html=1;fillColor=#dae8fc;strokeColor=#6c8ebf;" vertex="1" parent="1">
          <mxGeometry x="360" y="320" width="80" height="80" as="geometry" />
        </mxCell>
        <mxCell id="Svl2cvum7UI4GpYgN7TW-24" value="" style="verticalLabelPosition=bottom;verticalAlign=top;html=1;strokeWidth=2;shape=mxgraph.arrows2.arrow;dy=0.69;dx=30;notch=0;rotation=-180;fillColor=#fff2cc;strokeColor=#d6b656;" vertex="1" parent="1">
          <mxGeometry x="130" y="325" width="60" height="70" as="geometry" />
        </mxCell>
        <mxCell id="Svl2cvum7UI4GpYgN7TW-25" value="" style="rounded=0;whiteSpace=wrap;html=1;rotation=-55;fillColor=#e1d5e7;strokeColor=#9673a6;" vertex="1" parent="1">
          <mxGeometry x="289.75" y="349.29" width="62.04" height="21.07" as="geometry" />
        </mxCell>
        <mxCell id="Svl2cvum7UI4GpYgN7TW-26" value="" style="ellipse;whiteSpace=wrap;html=1;aspect=fixed;fillColor=#e1d5e7;strokeColor=#9673a6;" vertex="1" parent="1">
          <mxGeometry x="290" y="329.29" width="20" height="20" as="geometry" />
        </mxCell>
        <mxCell id="Svl2cvum7UI4GpYgN7TW-27" value="" style="ellipse;whiteSpace=wrap;html=1;aspect=fixed;fillColor=#e1d5e7;strokeColor=#9673a6;" vertex="1" parent="1">
          <mxGeometry x="331.79" y="375" width="20" height="20" as="geometry" />
        </mxCell>
        <mxCell id="Svl2cvum7UI4GpYgN7TW-28" value="" style="rounded=0;whiteSpace=wrap;html=1;" vertex="1" parent="1">
          <mxGeometry x="100" y="460" width="40" height="40" as="geometry" />
        </mxCell>
        <mxCell id="Svl2cvum7UI4GpYgN7TW-29" value="0" style="rounded=0;whiteSpace=wrap;html=1;strokeColor=none;" vertex="1" parent="1">
          <mxGeometry x="100" y="440" width="40" height="20" as="geometry" />
        </mxCell>
        <mxCell id="Svl2cvum7UI4GpYgN7TW-30" value="" style="rounded=0;whiteSpace=wrap;html=1;" vertex="1" parent="1">
          <mxGeometry x="140" y="460" width="40" height="40" as="geometry" />
        </mxCell>
        <mxCell id="Svl2cvum7UI4GpYgN7TW-31" value="1" style="rounded=0;whiteSpace=wrap;html=1;strokeColor=none;" vertex="1" parent="1">
          <mxGeometry x="140" y="440" width="40" height="20" as="geometry" />
        </mxCell>
        <mxCell id="Svl2cvum7UI4GpYgN7TW-32" value="" style="rounded=0;whiteSpace=wrap;html=1;" vertex="1" parent="1">
          <mxGeometry x="180" y="460" width="40" height="40" as="geometry" />
        </mxCell>
        <mxCell id="Svl2cvum7UI4GpYgN7TW-33" value="2" style="rounded=0;whiteSpace=wrap;html=1;strokeColor=none;" vertex="1" parent="1">
          <mxGeometry x="180" y="440" width="40" height="20" as="geometry" />
        </mxCell>
        <mxCell id="Svl2cvum7UI4GpYgN7TW-34" value="" style="rounded=0;whiteSpace=wrap;html=1;" vertex="1" parent="1">
          <mxGeometry x="220" y="460" width="40" height="40" as="geometry" />
        </mxCell>
        <mxCell id="Svl2cvum7UI4GpYgN7TW-35" value="3" style="rounded=0;whiteSpace=wrap;html=1;strokeColor=none;" vertex="1" parent="1">
          <mxGeometry x="220" y="440" width="40" height="20" as="geometry" />
        </mxCell>
        <mxCell id="Svl2cvum7UI4GpYgN7TW-36" value="" style="rounded=0;whiteSpace=wrap;html=1;" vertex="1" parent="1">
          <mxGeometry x="260" y="460" width="40" height="40" as="geometry" />
        </mxCell>
        <mxCell id="Svl2cvum7UI4GpYgN7TW-37" value="4" style="rounded=0;whiteSpace=wrap;html=1;strokeColor=none;" vertex="1" parent="1">
          <mxGeometry x="260" y="440" width="40" height="20" as="geometry" />
        </mxCell>
        <mxCell id="Svl2cvum7UI4GpYgN7TW-38" value="" style="rounded=0;whiteSpace=wrap;html=1;" vertex="1" parent="1">
          <mxGeometry x="300" y="460" width="40" height="40" as="geometry" />
        </mxCell>
        <mxCell id="Svl2cvum7UI4GpYgN7TW-39" value="5" style="rounded=0;whiteSpace=wrap;html=1;strokeColor=none;" vertex="1" parent="1">
          <mxGeometry x="300" y="440" width="40" height="20" as="geometry" />
        </mxCell>
        <mxCell id="Svl2cvum7UI4GpYgN7TW-40" value="" style="rounded=0;whiteSpace=wrap;html=1;" vertex="1" parent="1">
          <mxGeometry x="340" y="460" width="40" height="40" as="geometry" />
        </mxCell>
        <mxCell id="Svl2cvum7UI4GpYgN7TW-41" value="6" style="rounded=0;whiteSpace=wrap;html=1;strokeColor=none;" vertex="1" parent="1">
          <mxGeometry x="340" y="440" width="40" height="20" as="geometry" />
        </mxCell>
        <mxCell id="Svl2cvum7UI4GpYgN7TW-42" value="11" style="ellipse;whiteSpace=wrap;html=1;aspect=fixed;fillColor=#dae8fc;strokeColor=#6c8ebf;" vertex="1" parent="1">
          <mxGeometry x="260" y="460" width="40" height="40" as="geometry" />
        </mxCell>
        <mxCell id="Svl2cvum7UI4GpYgN7TW-43" value="15" style="ellipse;whiteSpace=wrap;html=1;aspect=fixed;fillColor=#dae8fc;strokeColor=#6c8ebf;" vertex="1" parent="1">
          <mxGeometry x="140" y="460" width="40" height="40" as="geometry" />
        </mxCell>
        <mxCell id="Svl2cvum7UI4GpYgN7TW-44" value="23" style="ellipse;whiteSpace=wrap;html=1;aspect=fixed;fillColor=#dae8fc;strokeColor=#6c8ebf;" vertex="1" parent="1">
          <mxGeometry x="180" y="460" width="40" height="40" as="geometry" />
        </mxCell>
        <mxCell id="Svl2cvum7UI4GpYgN7TW-45" value="26" style="ellipse;whiteSpace=wrap;html=1;aspect=fixed;fillColor=#dae8fc;strokeColor=#6c8ebf;" vertex="1" parent="1">
          <mxGeometry x="300" y="460" width="40" height="40" as="geometry" />
        </mxCell>
        <mxCell id="Svl2cvum7UI4GpYgN7TW-60" value="" style="rounded=0;whiteSpace=wrap;html=1;" vertex="1" parent="1">
          <mxGeometry x="40" y="620" width="40" height="40" as="geometry" />
        </mxCell>
        <mxCell id="Svl2cvum7UI4GpYgN7TW-61" value="0" style="rounded=0;whiteSpace=wrap;html=1;strokeColor=none;" vertex="1" parent="1">
          <mxGeometry x="40" y="600" width="40" height="20" as="geometry" />
        </mxCell>
        <mxCell id="Svl2cvum7UI4GpYgN7TW-62" value="" style="rounded=0;whiteSpace=wrap;html=1;" vertex="1" parent="1">
          <mxGeometry x="80" y="620" width="40" height="40" as="geometry" />
        </mxCell>
        <mxCell id="Svl2cvum7UI4GpYgN7TW-63" value="1" style="rounded=0;whiteSpace=wrap;html=1;strokeColor=none;" vertex="1" parent="1">
          <mxGeometry x="80" y="600" width="40" height="20" as="geometry" />
        </mxCell>
        <mxCell id="Svl2cvum7UI4GpYgN7TW-64" value="" style="rounded=0;whiteSpace=wrap;html=1;" vertex="1" parent="1">
          <mxGeometry x="120" y="620" width="40" height="40" as="geometry" />
        </mxCell>
        <mxCell id="Svl2cvum7UI4GpYgN7TW-65" value="2" style="rounded=0;whiteSpace=wrap;html=1;strokeColor=none;" vertex="1" parent="1">
          <mxGeometry x="120" y="600" width="40" height="20" as="geometry" />
        </mxCell>
        <mxCell id="Svl2cvum7UI4GpYgN7TW-66" value="" style="rounded=0;whiteSpace=wrap;html=1;" vertex="1" parent="1">
          <mxGeometry x="160" y="620" width="40" height="40" as="geometry" />
        </mxCell>
        <mxCell id="Svl2cvum7UI4GpYgN7TW-67" value="3" style="rounded=0;whiteSpace=wrap;html=1;strokeColor=none;" vertex="1" parent="1">
          <mxGeometry x="160" y="600" width="40" height="20" as="geometry" />
        </mxCell>
        <mxCell id="Svl2cvum7UI4GpYgN7TW-68" value="" style="rounded=0;whiteSpace=wrap;html=1;" vertex="1" parent="1">
          <mxGeometry x="200" y="620" width="40" height="40" as="geometry" />
        </mxCell>
        <mxCell id="Svl2cvum7UI4GpYgN7TW-69" value="4" style="rounded=0;whiteSpace=wrap;html=1;strokeColor=none;" vertex="1" parent="1">
          <mxGeometry x="200" y="600" width="40" height="20" as="geometry" />
        </mxCell>
        <mxCell id="Svl2cvum7UI4GpYgN7TW-70" value="" style="rounded=0;whiteSpace=wrap;html=1;" vertex="1" parent="1">
          <mxGeometry x="240" y="620" width="40" height="40" as="geometry" />
        </mxCell>
        <mxCell id="Svl2cvum7UI4GpYgN7TW-71" value="5" style="rounded=0;whiteSpace=wrap;html=1;strokeColor=none;" vertex="1" parent="1">
          <mxGeometry x="240" y="600" width="40" height="20" as="geometry" />
        </mxCell>
        <mxCell id="Svl2cvum7UI4GpYgN7TW-72" value="" style="rounded=0;whiteSpace=wrap;html=1;" vertex="1" parent="1">
          <mxGeometry x="280" y="620" width="40" height="40" as="geometry" />
        </mxCell>
        <mxCell id="Svl2cvum7UI4GpYgN7TW-73" value="6" style="rounded=0;whiteSpace=wrap;html=1;strokeColor=none;" vertex="1" parent="1">
          <mxGeometry x="280" y="600" width="40" height="20" as="geometry" />
        </mxCell>
        <mxCell id="Svl2cvum7UI4GpYgN7TW-74" value="25" style="ellipse;whiteSpace=wrap;html=1;aspect=fixed;fillColor=#f8cecc;strokeColor=#b85450;" vertex="1" parent="1">
          <mxGeometry x="80" y="620" width="40" height="40" as="geometry" />
        </mxCell>
        <mxCell id="Svl2cvum7UI4GpYgN7TW-75" value="12" style="ellipse;whiteSpace=wrap;html=1;aspect=fixed;fillColor=#dae8fc;strokeColor=#6c8ebf;" vertex="1" parent="1">
          <mxGeometry x="40" y="620" width="40" height="40" as="geometry" />
        </mxCell>
        <mxCell id="Svl2cvum7UI4GpYgN7TW-76" value="36" style="ellipse;whiteSpace=wrap;html=1;aspect=fixed;fillColor=#f8cecc;strokeColor=#b85450;" vertex="1" parent="1">
          <mxGeometry x="120" y="620" width="40" height="40" as="geometry" />
        </mxCell>
        <mxCell id="Svl2cvum7UI4GpYgN7TW-77" value="20" style="ellipse;whiteSpace=wrap;html=1;aspect=fixed;fillColor=#dae8fc;strokeColor=#6c8ebf;" vertex="1" parent="1">
          <mxGeometry x="160" y="620" width="40" height="40" as="geometry" />
        </mxCell>
        <mxCell id="Svl2cvum7UI4GpYgN7TW-78" value="30" style="ellipse;whiteSpace=wrap;html=1;aspect=fixed;fillColor=#dae8fc;strokeColor=#6c8ebf;" vertex="1" parent="1">
          <mxGeometry x="200" y="620" width="40" height="40" as="geometry" />
        </mxCell>
        <mxCell id="Svl2cvum7UI4GpYgN7TW-79" value="8" style="ellipse;whiteSpace=wrap;html=1;aspect=fixed;fillColor=#dae8fc;strokeColor=#6c8ebf;" vertex="1" parent="1">
          <mxGeometry x="240" y="620" width="40" height="40" as="geometry" />
        </mxCell>
        <mxCell id="Svl2cvum7UI4GpYgN7TW-80" value="42" style="ellipse;whiteSpace=wrap;html=1;aspect=fixed;fillColor=#dae8fc;strokeColor=#6c8ebf;" vertex="1" parent="1">
          <mxGeometry x="280" y="620" width="40" height="40" as="geometry" />
        </mxCell>
        <mxCell id="Svl2cvum7UI4GpYgN7TW-81" value="" style="rounded=0;whiteSpace=wrap;html=1;" vertex="1" parent="1">
          <mxGeometry x="40" y="740" width="40" height="40" as="geometry" />
        </mxCell>
        <mxCell id="Svl2cvum7UI4GpYgN7TW-82" value="0" style="rounded=0;whiteSpace=wrap;html=1;strokeColor=none;" vertex="1" parent="1">
          <mxGeometry x="40" y="720" width="40" height="20" as="geometry" />
        </mxCell>
        <mxCell id="Svl2cvum7UI4GpYgN7TW-83" value="" style="rounded=0;whiteSpace=wrap;html=1;" vertex="1" parent="1">
          <mxGeometry x="80" y="740" width="40" height="40" as="geometry" />
        </mxCell>
        <mxCell id="Svl2cvum7UI4GpYgN7TW-84" value="1" style="rounded=0;whiteSpace=wrap;html=1;strokeColor=none;" vertex="1" parent="1">
          <mxGeometry x="80" y="720" width="40" height="20" as="geometry" />
        </mxCell>
        <mxCell id="Svl2cvum7UI4GpYgN7TW-85" value="" style="rounded=0;whiteSpace=wrap;html=1;" vertex="1" parent="1">
          <mxGeometry x="120" y="740" width="40" height="40" as="geometry" />
        </mxCell>
        <mxCell id="Svl2cvum7UI4GpYgN7TW-86" value="2" style="rounded=0;whiteSpace=wrap;html=1;strokeColor=none;" vertex="1" parent="1">
          <mxGeometry x="120" y="720" width="40" height="20" as="geometry" />
        </mxCell>
        <mxCell id="Svl2cvum7UI4GpYgN7TW-87" value="" style="rounded=0;whiteSpace=wrap;html=1;" vertex="1" parent="1">
          <mxGeometry x="160" y="740" width="40" height="40" as="geometry" />
        </mxCell>
        <mxCell id="Svl2cvum7UI4GpYgN7TW-88" value="3" style="rounded=0;whiteSpace=wrap;html=1;strokeColor=#b85450;fillColor=#f8cecc;" vertex="1" parent="1">
          <mxGeometry x="160" y="720" width="40" height="20" as="geometry" />
        </mxCell>
        <mxCell id="Svl2cvum7UI4GpYgN7TW-89" value="" style="rounded=0;whiteSpace=wrap;html=1;" vertex="1" parent="1">
          <mxGeometry x="200" y="740" width="40" height="40" as="geometry" />
        </mxCell>
        <mxCell id="Svl2cvum7UI4GpYgN7TW-90" value="4" style="rounded=0;whiteSpace=wrap;html=1;strokeColor=none;" vertex="1" parent="1">
          <mxGeometry x="200" y="720" width="40" height="20" as="geometry" />
        </mxCell>
        <mxCell id="Svl2cvum7UI4GpYgN7TW-91" value="" style="rounded=0;whiteSpace=wrap;html=1;" vertex="1" parent="1">
          <mxGeometry x="240" y="740" width="40" height="40" as="geometry" />
        </mxCell>
        <mxCell id="Svl2cvum7UI4GpYgN7TW-92" value="5" style="rounded=0;whiteSpace=wrap;html=1;strokeColor=none;" vertex="1" parent="1">
          <mxGeometry x="240" y="720" width="40" height="20" as="geometry" />
        </mxCell>
        <mxCell id="Svl2cvum7UI4GpYgN7TW-93" value="" style="rounded=0;whiteSpace=wrap;html=1;" vertex="1" parent="1">
          <mxGeometry x="280" y="740" width="40" height="40" as="geometry" />
        </mxCell>
        <mxCell id="Svl2cvum7UI4GpYgN7TW-94" value="6" style="rounded=0;whiteSpace=wrap;html=1;strokeColor=none;" vertex="1" parent="1">
          <mxGeometry x="280" y="720" width="40" height="20" as="geometry" />
        </mxCell>
        <mxCell id="Svl2cvum7UI4GpYgN7TW-95" value="" style="rounded=0;whiteSpace=wrap;html=1;" vertex="1" parent="1">
          <mxGeometry x="320" y="740" width="40" height="40" as="geometry" />
        </mxCell>
        <mxCell id="Svl2cvum7UI4GpYgN7TW-96" value="7" style="rounded=0;whiteSpace=wrap;html=1;strokeColor=none;" vertex="1" parent="1">
          <mxGeometry x="320" y="720" width="40" height="20" as="geometry" />
        </mxCell>
        <mxCell id="Svl2cvum7UI4GpYgN7TW-97" value="" style="rounded=0;whiteSpace=wrap;html=1;" vertex="1" parent="1">
          <mxGeometry x="360" y="740" width="40" height="40" as="geometry" />
        </mxCell>
        <mxCell id="Svl2cvum7UI4GpYgN7TW-98" value="8" style="rounded=0;whiteSpace=wrap;html=1;strokeColor=none;" vertex="1" parent="1">
          <mxGeometry x="360" y="720" width="40" height="20" as="geometry" />
        </mxCell>
        <mxCell id="Svl2cvum7UI4GpYgN7TW-99" value="" style="rounded=0;whiteSpace=wrap;html=1;" vertex="1" parent="1">
          <mxGeometry x="400" y="740" width="40" height="40" as="geometry" />
        </mxCell>
        <mxCell id="Svl2cvum7UI4GpYgN7TW-100" value="9" style="rounded=0;whiteSpace=wrap;html=1;strokeColor=none;" vertex="1" parent="1">
          <mxGeometry x="400" y="720" width="40" height="20" as="geometry" />
        </mxCell>
        <mxCell id="Svl2cvum7UI4GpYgN7TW-101" value="" style="rounded=0;whiteSpace=wrap;html=1;" vertex="1" parent="1">
          <mxGeometry x="440" y="740" width="40" height="40" as="geometry" />
        </mxCell>
        <mxCell id="Svl2cvum7UI4GpYgN7TW-102" value="10" style="rounded=0;whiteSpace=wrap;html=1;strokeColor=none;" vertex="1" parent="1">
          <mxGeometry x="440" y="720" width="40" height="20" as="geometry" />
        </mxCell>
        <mxCell id="Svl2cvum7UI4GpYgN7TW-107" value="0" style="ellipse;whiteSpace=wrap;html=1;aspect=fixed;fillColor=#dae8fc;strokeColor=#6c8ebf;" vertex="1" parent="1">
          <mxGeometry x="40" y="740" width="40" height="40" as="geometry" />
        </mxCell>
        <mxCell id="Svl2cvum7UI4GpYgN7TW-108" value="0" style="ellipse;whiteSpace=wrap;html=1;aspect=fixed;fillColor=#dae8fc;strokeColor=#6c8ebf;" vertex="1" parent="1">
          <mxGeometry x="80" y="740" width="40" height="40" as="geometry" />
        </mxCell>
        <mxCell id="Svl2cvum7UI4GpYgN7TW-109" value="0" style="ellipse;whiteSpace=wrap;html=1;aspect=fixed;fillColor=#dae8fc;strokeColor=#6c8ebf;" vertex="1" parent="1">
          <mxGeometry x="120" y="740" width="40" height="40" as="geometry" />
        </mxCell>
        <mxCell id="Svl2cvum7UI4GpYgN7TW-110" value="0" style="ellipse;whiteSpace=wrap;html=1;aspect=fixed;fillColor=#dae8fc;strokeColor=#6c8ebf;" vertex="1" parent="1">
          <mxGeometry x="160" y="740" width="40" height="40" as="geometry" />
        </mxCell>
        <mxCell id="Svl2cvum7UI4GpYgN7TW-111" value="0" style="ellipse;whiteSpace=wrap;html=1;aspect=fixed;fillColor=#dae8fc;strokeColor=#6c8ebf;" vertex="1" parent="1">
          <mxGeometry x="200" y="740" width="40" height="40" as="geometry" />
        </mxCell>
        <mxCell id="Svl2cvum7UI4GpYgN7TW-112" value="0" style="ellipse;whiteSpace=wrap;html=1;aspect=fixed;fillColor=#dae8fc;strokeColor=#6c8ebf;" vertex="1" parent="1">
          <mxGeometry x="240" y="740" width="40" height="40" as="geometry" />
        </mxCell>
        <mxCell id="Svl2cvum7UI4GpYgN7TW-113" value="0" style="ellipse;whiteSpace=wrap;html=1;aspect=fixed;fillColor=#dae8fc;strokeColor=#6c8ebf;" vertex="1" parent="1">
          <mxGeometry x="280" y="740" width="40" height="40" as="geometry" />
        </mxCell>
        <mxCell id="Svl2cvum7UI4GpYgN7TW-114" value="0" style="ellipse;whiteSpace=wrap;html=1;aspect=fixed;fillColor=#dae8fc;strokeColor=#6c8ebf;" vertex="1" parent="1">
          <mxGeometry x="319.99999999999994" y="740" width="40" height="40" as="geometry" />
        </mxCell>
        <mxCell id="Svl2cvum7UI4GpYgN7TW-115" value="0" style="ellipse;whiteSpace=wrap;html=1;aspect=fixed;fillColor=#dae8fc;strokeColor=#6c8ebf;" vertex="1" parent="1">
          <mxGeometry x="360" y="740" width="40" height="40" as="geometry" />
        </mxCell>
        <mxCell id="Svl2cvum7UI4GpYgN7TW-116" value="0" style="ellipse;whiteSpace=wrap;html=1;aspect=fixed;fillColor=#dae8fc;strokeColor=#6c8ebf;" vertex="1" parent="1">
          <mxGeometry x="400" y="740" width="40" height="40" as="geometry" />
        </mxCell>
        <mxCell id="Svl2cvum7UI4GpYgN7TW-117" value="0" style="ellipse;whiteSpace=wrap;html=1;aspect=fixed;fillColor=#dae8fc;strokeColor=#6c8ebf;" vertex="1" parent="1">
          <mxGeometry x="440" y="740" width="40" height="40" as="geometry" />
        </mxCell>
        <mxCell id="Svl2cvum7UI4GpYgN7TW-118" value="&amp;nbsp;공을 넣을&amp;nbsp;&lt;br&gt;방번호" style="rounded=0;whiteSpace=wrap;html=1;fillColor=#f8cecc;strokeColor=#b85450;" vertex="1" parent="1">
          <mxGeometry x="60" y="840" width="80" height="80" as="geometry" />
        </mxCell>
        <mxCell id="Svl2cvum7UI4GpYgN7TW-119" value="공의 숫자" style="rounded=0;whiteSpace=wrap;html=1;fillColor=#dae8fc;strokeColor=#6c8ebf;" vertex="1" parent="1">
          <mxGeometry x="220" y="840" width="80" height="80" as="geometry" />
        </mxCell>
        <mxCell id="Svl2cvum7UI4GpYgN7TW-120" value="방의 수&lt;br&gt;7" style="rounded=0;whiteSpace=wrap;html=1;fillColor=#dae8fc;strokeColor=#6c8ebf;" vertex="1" parent="1">
          <mxGeometry x="380" y="840" width="80" height="80" as="geometry" />
        </mxCell>
        <mxCell id="Svl2cvum7UI4GpYgN7TW-121" value="" style="verticalLabelPosition=bottom;verticalAlign=top;html=1;strokeWidth=2;shape=mxgraph.arrows2.arrow;dy=0.69;dx=30;notch=0;rotation=-180;fillColor=#fff2cc;strokeColor=#d6b656;" vertex="1" parent="1">
          <mxGeometry x="150" y="845" width="60" height="70" as="geometry" />
        </mxCell>
        <mxCell id="Svl2cvum7UI4GpYgN7TW-122" value="" style="rounded=0;whiteSpace=wrap;html=1;rotation=-55;fillColor=#e1d5e7;strokeColor=#9673a6;" vertex="1" parent="1">
          <mxGeometry x="309.75" y="869.29" width="62.04" height="21.07" as="geometry" />
        </mxCell>
        <mxCell id="Svl2cvum7UI4GpYgN7TW-123" value="" style="ellipse;whiteSpace=wrap;html=1;aspect=fixed;fillColor=#e1d5e7;strokeColor=#9673a6;" vertex="1" parent="1">
          <mxGeometry x="310" y="849.29" width="20" height="20" as="geometry" />
        </mxCell>
        <mxCell id="Svl2cvum7UI4GpYgN7TW-124" value="" style="ellipse;whiteSpace=wrap;html=1;aspect=fixed;fillColor=#e1d5e7;strokeColor=#9673a6;" vertex="1" parent="1">
          <mxGeometry x="351.79" y="895" width="20" height="20" as="geometry" />
        </mxCell>
        <mxCell id="Svl2cvum7UI4GpYgN7TW-129" value="" style="edgeStyle=orthogonalEdgeStyle;rounded=0;orthogonalLoop=1;jettySize=auto;html=1;" edge="1" parent="1" source="Svl2cvum7UI4GpYgN7TW-126" target="Svl2cvum7UI4GpYgN7TW-128">
          <mxGeometry relative="1" as="geometry" />
        </mxCell>
        <mxCell id="Svl2cvum7UI4GpYgN7TW-126" value="k = arrD[0] % 11" style="rounded=1;whiteSpace=wrap;html=1;absoluteArcSize=1;arcSize=14;strokeWidth=2;" vertex="1" parent="1">
          <mxGeometry x="520" y="160" width="120" height="40" as="geometry" />
        </mxCell>
        <mxCell id="Svl2cvum7UI4GpYgN7TW-131" value="yes" style="edgeStyle=orthogonalEdgeStyle;rounded=0;orthogonalLoop=1;jettySize=auto;html=1;" edge="1" parent="1" source="Svl2cvum7UI4GpYgN7TW-128" target="Svl2cvum7UI4GpYgN7TW-130">
          <mxGeometry relative="1" as="geometry" />
        </mxCell>
        <mxCell id="Svl2cvum7UI4GpYgN7TW-133" value="no" style="edgeStyle=orthogonalEdgeStyle;rounded=0;orthogonalLoop=1;jettySize=auto;html=1;" edge="1" parent="1" source="Svl2cvum7UI4GpYgN7TW-128" target="Svl2cvum7UI4GpYgN7TW-132">
          <mxGeometry relative="1" as="geometry" />
        </mxCell>
        <mxCell id="Svl2cvum7UI4GpYgN7TW-128" value="arrH[k] =0" style="strokeWidth=2;html=1;shape=mxgraph.flowchart.decision;whiteSpace=wrap;" vertex="1" parent="1">
          <mxGeometry x="520" y="240" width="120" height="40" as="geometry" />
        </mxCell>
        <mxCell id="Svl2cvum7UI4GpYgN7TW-130" value="arrH[k] = arrD[0]" style="rounded=1;whiteSpace=wrap;html=1;absoluteArcSize=1;arcSize=14;strokeWidth=2;" vertex="1" parent="1">
          <mxGeometry x="520" y="319.28999999999996" width="120" height="40" as="geometry" />
        </mxCell>
        <mxCell id="Svl2cvum7UI4GpYgN7TW-132" value="" style="verticalLabelPosition=bottom;verticalAlign=top;html=1;shape=mxgraph.flowchart.parallel_mode;pointerEvents=1" vertex="1" parent="1">
          <mxGeometry x="680" y="240" width="95" height="40" as="geometry" />
        </mxCell>
        <mxCell id="Svl2cvum7UI4GpYgN7TW-136" value="" style="edgeStyle=orthogonalEdgeStyle;rounded=0;orthogonalLoop=1;jettySize=auto;html=1;" edge="1" parent="1" source="Svl2cvum7UI4GpYgN7TW-137" target="Svl2cvum7UI4GpYgN7TW-140">
          <mxGeometry relative="1" as="geometry" />
        </mxCell>
        <mxCell id="Svl2cvum7UI4GpYgN7TW-137" value="k = arrD[i] % 11" style="rounded=1;whiteSpace=wrap;html=1;absoluteArcSize=1;arcSize=14;strokeWidth=2;" vertex="1" parent="1">
          <mxGeometry x="560" y="520" width="120" height="40" as="geometry" />
        </mxCell>
        <mxCell id="Svl2cvum7UI4GpYgN7TW-138" value="yes" style="edgeStyle=orthogonalEdgeStyle;rounded=0;orthogonalLoop=1;jettySize=auto;html=1;" edge="1" parent="1" source="Svl2cvum7UI4GpYgN7TW-140" target="Svl2cvum7UI4GpYgN7TW-141">
          <mxGeometry relative="1" as="geometry" />
        </mxCell>
        <mxCell id="Svl2cvum7UI4GpYgN7TW-139" value="no" style="edgeStyle=orthogonalEdgeStyle;rounded=0;orthogonalLoop=1;jettySize=auto;html=1;" edge="1" parent="1" source="Svl2cvum7UI4GpYgN7TW-140" target="Svl2cvum7UI4GpYgN7TW-142">
          <mxGeometry relative="1" as="geometry" />
        </mxCell>
        <mxCell id="Svl2cvum7UI4GpYgN7TW-140" value="arrH[k] =0" style="strokeWidth=2;html=1;shape=mxgraph.flowchart.decision;whiteSpace=wrap;" vertex="1" parent="1">
          <mxGeometry x="560" y="600" width="120" height="40" as="geometry" />
        </mxCell>
        <mxCell id="Svl2cvum7UI4GpYgN7TW-146" value="" style="edgeStyle=orthogonalEdgeStyle;rounded=0;orthogonalLoop=1;jettySize=auto;html=1;" edge="1" parent="1" source="Svl2cvum7UI4GpYgN7TW-141" target="Svl2cvum7UI4GpYgN7TW-145">
          <mxGeometry relative="1" as="geometry" />
        </mxCell>
        <mxCell id="Svl2cvum7UI4GpYgN7TW-141" value="arrH[k] = arrD[i]" style="rounded=1;whiteSpace=wrap;html=1;absoluteArcSize=1;arcSize=14;strokeWidth=2;" vertex="1" parent="1">
          <mxGeometry x="560" y="679.29" width="120" height="40" as="geometry" />
        </mxCell>
        <mxCell id="Svl2cvum7UI4GpYgN7TW-142" value="" style="verticalLabelPosition=bottom;verticalAlign=top;html=1;shape=mxgraph.flowchart.parallel_mode;pointerEvents=1" vertex="1" parent="1">
          <mxGeometry x="720" y="600" width="95" height="40" as="geometry" />
        </mxCell>
        <mxCell id="Svl2cvum7UI4GpYgN7TW-144" value="" style="edgeStyle=orthogonalEdgeStyle;rounded=0;orthogonalLoop=1;jettySize=auto;html=1;" edge="1" parent="1" source="Svl2cvum7UI4GpYgN7TW-143" target="Svl2cvum7UI4GpYgN7TW-137">
          <mxGeometry relative="1" as="geometry" />
        </mxCell>
        <mxCell id="Svl2cvum7UI4GpYgN7TW-143" value="i = 0" style="strokeWidth=2;html=1;shape=mxgraph.flowchart.document2;whiteSpace=wrap;size=0.25;" vertex="1" parent="1">
          <mxGeometry x="560" y="440" width="120" height="40" as="geometry" />
        </mxCell>
        <mxCell id="Svl2cvum7UI4GpYgN7TW-147" style="edgeStyle=orthogonalEdgeStyle;rounded=0;orthogonalLoop=1;jettySize=auto;html=1;" edge="1" parent="1" source="Svl2cvum7UI4GpYgN7TW-145">
          <mxGeometry relative="1" as="geometry">
            <mxPoint x="620" y="500" as="targetPoint" />
            <Array as="points">
              <mxPoint x="620" y="820" />
              <mxPoint x="520" y="820" />
              <mxPoint x="520" y="500" />
            </Array>
          </mxGeometry>
        </mxCell>
        <mxCell id="Svl2cvum7UI4GpYgN7TW-145" value="i = i + 1" style="rounded=1;whiteSpace=wrap;html=1;absoluteArcSize=1;arcSize=14;strokeWidth=2;" vertex="1" parent="1">
          <mxGeometry x="560" y="760" width="120" height="40" as="geometry" />
        </mxCell>
        <mxCell id="Svl2cvum7UI4GpYgN7TW-152" value="no" style="edgeStyle=orthogonalEdgeStyle;rounded=0;orthogonalLoop=1;jettySize=auto;html=1;" edge="1" parent="1" source="Svl2cvum7UI4GpYgN7TW-149" target="Svl2cvum7UI4GpYgN7TW-151">
          <mxGeometry x="-0.5" relative="1" as="geometry">
            <mxPoint as="offset" />
          </mxGeometry>
        </mxCell>
        <mxCell id="Svl2cvum7UI4GpYgN7TW-155" value="" style="edgeStyle=orthogonalEdgeStyle;rounded=0;orthogonalLoop=1;jettySize=auto;html=1;" edge="1" parent="1" source="Svl2cvum7UI4GpYgN7TW-149" target="Svl2cvum7UI4GpYgN7TW-154">
          <mxGeometry relative="1" as="geometry" />
        </mxCell>
        <mxCell id="Svl2cvum7UI4GpYgN7TW-149" value="arrH[k] =0" style="strokeWidth=2;html=1;shape=mxgraph.flowchart.decision;whiteSpace=wrap;" vertex="1" parent="1">
          <mxGeometry x="480" y="880" width="120" height="40" as="geometry" />
        </mxCell>
        <mxCell id="Svl2cvum7UI4GpYgN7TW-153" style="edgeStyle=orthogonalEdgeStyle;rounded=0;orthogonalLoop=1;jettySize=auto;html=1;entryX=0.5;entryY=0;entryDx=0;entryDy=0;entryPerimeter=0;" edge="1" parent="1" source="Svl2cvum7UI4GpYgN7TW-151" target="Svl2cvum7UI4GpYgN7TW-149">
          <mxGeometry relative="1" as="geometry">
            <Array as="points">
              <mxPoint x="700" y="1040" />
              <mxPoint x="800" y="1040" />
              <mxPoint x="800" y="860" />
              <mxPoint x="540" y="860" />
            </Array>
          </mxGeometry>
        </mxCell>
        <mxCell id="Svl2cvum7UI4GpYgN7TW-151" value="k = k + 1" style="rounded=1;whiteSpace=wrap;html=1;absoluteArcSize=1;arcSize=14;strokeWidth=2;" vertex="1" parent="1">
          <mxGeometry x="640" y="960" width="120" height="40" as="geometry" />
        </mxCell>
        <mxCell id="Svl2cvum7UI4GpYgN7TW-154" value="" style="verticalLabelPosition=bottom;verticalAlign=top;html=1;shape=mxgraph.flowchart.parallel_mode;pointerEvents=1" vertex="1" parent="1">
          <mxGeometry x="492.5" y="960" width="95" height="40" as="geometry" />
        </mxCell>
        <mxCell id="Svl2cvum7UI4GpYgN7TW-178" value="" style="rounded=0;whiteSpace=wrap;html=1;" vertex="1" parent="1">
          <mxGeometry x="40" y="1220" width="40" height="40" as="geometry" />
        </mxCell>
        <mxCell id="Svl2cvum7UI4GpYgN7TW-179" value="0" style="rounded=0;whiteSpace=wrap;html=1;strokeColor=none;" vertex="1" parent="1">
          <mxGeometry x="40" y="1200" width="40" height="20" as="geometry" />
        </mxCell>
        <mxCell id="Svl2cvum7UI4GpYgN7TW-180" value="" style="rounded=0;whiteSpace=wrap;html=1;" vertex="1" parent="1">
          <mxGeometry x="80" y="1220" width="40" height="40" as="geometry" />
        </mxCell>
        <mxCell id="Svl2cvum7UI4GpYgN7TW-181" value="1" style="rounded=0;whiteSpace=wrap;html=1;strokeColor=none;" vertex="1" parent="1">
          <mxGeometry x="80" y="1200" width="40" height="20" as="geometry" />
        </mxCell>
        <mxCell id="Svl2cvum7UI4GpYgN7TW-182" value="" style="rounded=0;whiteSpace=wrap;html=1;" vertex="1" parent="1">
          <mxGeometry x="120" y="1220" width="40" height="40" as="geometry" />
        </mxCell>
        <mxCell id="Svl2cvum7UI4GpYgN7TW-183" value="2" style="rounded=0;whiteSpace=wrap;html=1;strokeColor=none;" vertex="1" parent="1">
          <mxGeometry x="120" y="1200" width="40" height="20" as="geometry" />
        </mxCell>
        <mxCell id="Svl2cvum7UI4GpYgN7TW-184" value="" style="rounded=0;whiteSpace=wrap;html=1;" vertex="1" parent="1">
          <mxGeometry x="160" y="1220" width="40" height="40" as="geometry" />
        </mxCell>
        <mxCell id="Svl2cvum7UI4GpYgN7TW-185" value="3" style="rounded=0;whiteSpace=wrap;html=1;strokeColor=#b85450;fillColor=#f8cecc;" vertex="1" parent="1">
          <mxGeometry x="160" y="1200" width="40" height="20" as="geometry" />
        </mxCell>
        <mxCell id="Svl2cvum7UI4GpYgN7TW-186" value="" style="rounded=0;whiteSpace=wrap;html=1;" vertex="1" parent="1">
          <mxGeometry x="200" y="1220" width="40" height="40" as="geometry" />
        </mxCell>
        <mxCell id="Svl2cvum7UI4GpYgN7TW-187" value="4" style="rounded=0;whiteSpace=wrap;html=1;strokeColor=none;" vertex="1" parent="1">
          <mxGeometry x="200" y="1200" width="40" height="20" as="geometry" />
        </mxCell>
        <mxCell id="Svl2cvum7UI4GpYgN7TW-188" value="" style="rounded=0;whiteSpace=wrap;html=1;" vertex="1" parent="1">
          <mxGeometry x="240" y="1220" width="40" height="40" as="geometry" />
        </mxCell>
        <mxCell id="Svl2cvum7UI4GpYgN7TW-189" value="5" style="rounded=0;whiteSpace=wrap;html=1;strokeColor=none;" vertex="1" parent="1">
          <mxGeometry x="240" y="1200" width="40" height="20" as="geometry" />
        </mxCell>
        <mxCell id="Svl2cvum7UI4GpYgN7TW-190" value="" style="rounded=0;whiteSpace=wrap;html=1;" vertex="1" parent="1">
          <mxGeometry x="280" y="1220" width="40" height="40" as="geometry" />
        </mxCell>
        <mxCell id="Svl2cvum7UI4GpYgN7TW-191" value="6" style="rounded=0;whiteSpace=wrap;html=1;strokeColor=none;" vertex="1" parent="1">
          <mxGeometry x="280" y="1200" width="40" height="20" as="geometry" />
        </mxCell>
        <mxCell id="Svl2cvum7UI4GpYgN7TW-192" value="" style="rounded=0;whiteSpace=wrap;html=1;" vertex="1" parent="1">
          <mxGeometry x="320" y="1220" width="40" height="40" as="geometry" />
        </mxCell>
        <mxCell id="Svl2cvum7UI4GpYgN7TW-193" value="7" style="rounded=0;whiteSpace=wrap;html=1;strokeColor=none;" vertex="1" parent="1">
          <mxGeometry x="320" y="1200" width="40" height="20" as="geometry" />
        </mxCell>
        <mxCell id="Svl2cvum7UI4GpYgN7TW-194" value="" style="rounded=0;whiteSpace=wrap;html=1;" vertex="1" parent="1">
          <mxGeometry x="360" y="1220" width="40" height="40" as="geometry" />
        </mxCell>
        <mxCell id="Svl2cvum7UI4GpYgN7TW-195" value="8" style="rounded=0;whiteSpace=wrap;html=1;strokeColor=none;" vertex="1" parent="1">
          <mxGeometry x="360" y="1200" width="40" height="20" as="geometry" />
        </mxCell>
        <mxCell id="Svl2cvum7UI4GpYgN7TW-196" value="" style="rounded=0;whiteSpace=wrap;html=1;" vertex="1" parent="1">
          <mxGeometry x="400" y="1220" width="40" height="40" as="geometry" />
        </mxCell>
        <mxCell id="Svl2cvum7UI4GpYgN7TW-197" value="9" style="rounded=0;whiteSpace=wrap;html=1;strokeColor=none;" vertex="1" parent="1">
          <mxGeometry x="400" y="1200" width="40" height="20" as="geometry" />
        </mxCell>
        <mxCell id="Svl2cvum7UI4GpYgN7TW-198" value="" style="rounded=0;whiteSpace=wrap;html=1;" vertex="1" parent="1">
          <mxGeometry x="440" y="1220" width="40" height="40" as="geometry" />
        </mxCell>
        <mxCell id="Svl2cvum7UI4GpYgN7TW-199" value="10" style="rounded=0;whiteSpace=wrap;html=1;strokeColor=none;" vertex="1" parent="1">
          <mxGeometry x="440" y="1200" width="40" height="20" as="geometry" />
        </mxCell>
        <mxCell id="Svl2cvum7UI4GpYgN7TW-200" value="0" style="ellipse;whiteSpace=wrap;html=1;aspect=fixed;fillColor=#dae8fc;strokeColor=#6c8ebf;" vertex="1" parent="1">
          <mxGeometry x="40" y="1220" width="40" height="40" as="geometry" />
        </mxCell>
        <mxCell id="Svl2cvum7UI4GpYgN7TW-202" value="0" style="ellipse;whiteSpace=wrap;html=1;aspect=fixed;fillColor=#dae8fc;strokeColor=#6c8ebf;" vertex="1" parent="1">
          <mxGeometry x="120" y="1220" width="40" height="40" as="geometry" />
        </mxCell>
        <mxCell id="Svl2cvum7UI4GpYgN7TW-203" value="0" style="ellipse;whiteSpace=wrap;html=1;aspect=fixed;fillColor=#dae8fc;strokeColor=#6c8ebf;" vertex="1" parent="1">
          <mxGeometry x="160" y="1220" width="40" height="40" as="geometry" />
        </mxCell>
        <mxCell id="Svl2cvum7UI4GpYgN7TW-204" value="0" style="ellipse;whiteSpace=wrap;html=1;aspect=fixed;fillColor=#dae8fc;strokeColor=#6c8ebf;" vertex="1" parent="1">
          <mxGeometry x="200" y="1220" width="40" height="40" as="geometry" />
        </mxCell>
        <mxCell id="Svl2cvum7UI4GpYgN7TW-205" value="0" style="ellipse;whiteSpace=wrap;html=1;aspect=fixed;fillColor=#dae8fc;strokeColor=#6c8ebf;" vertex="1" parent="1">
          <mxGeometry x="240" y="1220" width="40" height="40" as="geometry" />
        </mxCell>
        <mxCell id="Svl2cvum7UI4GpYgN7TW-206" value="0" style="ellipse;whiteSpace=wrap;html=1;aspect=fixed;fillColor=#dae8fc;strokeColor=#6c8ebf;" vertex="1" parent="1">
          <mxGeometry x="280" y="1220" width="40" height="40" as="geometry" />
        </mxCell>
        <mxCell id="Svl2cvum7UI4GpYgN7TW-207" value="0" style="ellipse;whiteSpace=wrap;html=1;aspect=fixed;fillColor=#dae8fc;strokeColor=#6c8ebf;" vertex="1" parent="1">
          <mxGeometry x="319.99999999999994" y="1220" width="40" height="40" as="geometry" />
        </mxCell>
        <mxCell id="Svl2cvum7UI4GpYgN7TW-208" value="0" style="ellipse;whiteSpace=wrap;html=1;aspect=fixed;fillColor=#dae8fc;strokeColor=#6c8ebf;" vertex="1" parent="1">
          <mxGeometry x="360" y="1220" width="40" height="40" as="geometry" />
        </mxCell>
        <mxCell id="Svl2cvum7UI4GpYgN7TW-209" value="0" style="ellipse;whiteSpace=wrap;html=1;aspect=fixed;fillColor=#dae8fc;strokeColor=#6c8ebf;" vertex="1" parent="1">
          <mxGeometry x="400" y="1220" width="40" height="40" as="geometry" />
        </mxCell>
        <mxCell id="Svl2cvum7UI4GpYgN7TW-210" value="0" style="ellipse;whiteSpace=wrap;html=1;aspect=fixed;fillColor=#dae8fc;strokeColor=#6c8ebf;" vertex="1" parent="1">
          <mxGeometry x="440" y="1220" width="40" height="40" as="geometry" />
        </mxCell>
        <mxCell id="Svl2cvum7UI4GpYgN7TW-157" value="" style="rounded=0;whiteSpace=wrap;html=1;" vertex="1" parent="1">
          <mxGeometry x="40" y="1100" width="40" height="40" as="geometry" />
        </mxCell>
        <mxCell id="Svl2cvum7UI4GpYgN7TW-158" value="0" style="rounded=0;whiteSpace=wrap;html=1;strokeColor=none;" vertex="1" parent="1">
          <mxGeometry x="40" y="1080" width="40" height="20" as="geometry" />
        </mxCell>
        <mxCell id="Svl2cvum7UI4GpYgN7TW-159" value="" style="rounded=0;whiteSpace=wrap;html=1;" vertex="1" parent="1">
          <mxGeometry x="80" y="1100" width="40" height="40" as="geometry" />
        </mxCell>
        <mxCell id="Svl2cvum7UI4GpYgN7TW-160" value="1" style="rounded=0;whiteSpace=wrap;html=1;strokeColor=none;" vertex="1" parent="1">
          <mxGeometry x="80" y="1080" width="40" height="20" as="geometry" />
        </mxCell>
        <mxCell id="Svl2cvum7UI4GpYgN7TW-161" value="" style="rounded=0;whiteSpace=wrap;html=1;" vertex="1" parent="1">
          <mxGeometry x="120" y="1100" width="40" height="40" as="geometry" />
        </mxCell>
        <mxCell id="Svl2cvum7UI4GpYgN7TW-162" value="2" style="rounded=0;whiteSpace=wrap;html=1;strokeColor=none;" vertex="1" parent="1">
          <mxGeometry x="120" y="1080" width="40" height="20" as="geometry" />
        </mxCell>
        <mxCell id="Svl2cvum7UI4GpYgN7TW-163" value="" style="rounded=0;whiteSpace=wrap;html=1;" vertex="1" parent="1">
          <mxGeometry x="160" y="1100" width="40" height="40" as="geometry" />
        </mxCell>
        <mxCell id="Svl2cvum7UI4GpYgN7TW-164" value="3" style="rounded=0;whiteSpace=wrap;html=1;strokeColor=none;" vertex="1" parent="1">
          <mxGeometry x="160" y="1080" width="40" height="20" as="geometry" />
        </mxCell>
        <mxCell id="Svl2cvum7UI4GpYgN7TW-165" value="" style="rounded=0;whiteSpace=wrap;html=1;" vertex="1" parent="1">
          <mxGeometry x="200" y="1100" width="40" height="40" as="geometry" />
        </mxCell>
        <mxCell id="Svl2cvum7UI4GpYgN7TW-166" value="4" style="rounded=0;whiteSpace=wrap;html=1;strokeColor=none;" vertex="1" parent="1">
          <mxGeometry x="200" y="1080" width="40" height="20" as="geometry" />
        </mxCell>
        <mxCell id="Svl2cvum7UI4GpYgN7TW-167" value="" style="rounded=0;whiteSpace=wrap;html=1;" vertex="1" parent="1">
          <mxGeometry x="240" y="1100" width="40" height="40" as="geometry" />
        </mxCell>
        <mxCell id="Svl2cvum7UI4GpYgN7TW-168" value="5" style="rounded=0;whiteSpace=wrap;html=1;strokeColor=none;" vertex="1" parent="1">
          <mxGeometry x="240" y="1080" width="40" height="20" as="geometry" />
        </mxCell>
        <mxCell id="Svl2cvum7UI4GpYgN7TW-169" value="" style="rounded=0;whiteSpace=wrap;html=1;" vertex="1" parent="1">
          <mxGeometry x="280" y="1100" width="40" height="40" as="geometry" />
        </mxCell>
        <mxCell id="Svl2cvum7UI4GpYgN7TW-170" value="6" style="rounded=0;whiteSpace=wrap;html=1;strokeColor=none;" vertex="1" parent="1">
          <mxGeometry x="280" y="1080" width="40" height="20" as="geometry" />
        </mxCell>
        <mxCell id="Svl2cvum7UI4GpYgN7TW-171" value="25" style="ellipse;whiteSpace=wrap;html=1;aspect=fixed;fillColor=#dae8fc;strokeColor=#6c8ebf;" vertex="1" parent="1">
          <mxGeometry x="160" y="1220" width="40" height="40" as="geometry" />
        </mxCell>
        <mxCell id="Svl2cvum7UI4GpYgN7TW-172" value="12" style="ellipse;whiteSpace=wrap;html=1;aspect=fixed;fillColor=#dae8fc;strokeColor=#6c8ebf;" vertex="1" parent="1">
          <mxGeometry x="80" y="1220" width="40" height="40" as="geometry" />
        </mxCell>
        <mxCell id="Svl2cvum7UI4GpYgN7TW-173" value="36" style="ellipse;whiteSpace=wrap;html=1;aspect=fixed;fillColor=#dae8fc;strokeColor=#6c8ebf;" vertex="1" parent="1">
          <mxGeometry x="200" y="1220" width="40" height="40" as="geometry" />
        </mxCell>
        <mxCell id="Svl2cvum7UI4GpYgN7TW-174" value="20" style="ellipse;whiteSpace=wrap;html=1;aspect=fixed;fillColor=#dae8fc;strokeColor=#6c8ebf;" vertex="1" parent="1">
          <mxGeometry x="400" y="1220" width="40" height="40" as="geometry" />
        </mxCell>
        <mxCell id="Svl2cvum7UI4GpYgN7TW-175" value="30" style="ellipse;whiteSpace=wrap;html=1;aspect=fixed;fillColor=#dae8fc;strokeColor=#6c8ebf;" vertex="1" parent="1">
          <mxGeometry x="360" y="1220" width="40" height="40" as="geometry" />
        </mxCell>
        <mxCell id="Svl2cvum7UI4GpYgN7TW-176" value="8" style="ellipse;whiteSpace=wrap;html=1;aspect=fixed;fillColor=#dae8fc;strokeColor=#6c8ebf;" vertex="1" parent="1">
          <mxGeometry x="440" y="1220" width="40" height="40" as="geometry" />
        </mxCell>
        <mxCell id="Svl2cvum7UI4GpYgN7TW-177" value="42" style="ellipse;whiteSpace=wrap;html=1;aspect=fixed;fillColor=#dae8fc;strokeColor=#6c8ebf;" vertex="1" parent="1">
          <mxGeometry x="280" y="1100" width="40" height="40" as="geometry" />
        </mxCell>
        <mxCell id="Svl2cvum7UI4GpYgN7TW-211" value="no" style="edgeStyle=orthogonalEdgeStyle;rounded=0;orthogonalLoop=1;jettySize=auto;html=1;" edge="1" parent="1" source="Svl2cvum7UI4GpYgN7TW-213" target="Svl2cvum7UI4GpYgN7TW-215">
          <mxGeometry x="-0.5" relative="1" as="geometry">
            <mxPoint as="offset" />
          </mxGeometry>
        </mxCell>
        <mxCell id="Svl2cvum7UI4GpYgN7TW-212" value="" style="edgeStyle=orthogonalEdgeStyle;rounded=0;orthogonalLoop=1;jettySize=auto;html=1;" edge="1" parent="1" source="Svl2cvum7UI4GpYgN7TW-213" target="Svl2cvum7UI4GpYgN7TW-216">
          <mxGeometry relative="1" as="geometry" />
        </mxCell>
        <mxCell id="Svl2cvum7UI4GpYgN7TW-213" value="arrH[k] =0" style="strokeWidth=2;html=1;shape=mxgraph.flowchart.decision;whiteSpace=wrap;" vertex="1" parent="1">
          <mxGeometry x="80" y="1320" width="120" height="40" as="geometry" />
        </mxCell>
        <mxCell id="Svl2cvum7UI4GpYgN7TW-214" style="edgeStyle=orthogonalEdgeStyle;rounded=0;orthogonalLoop=1;jettySize=auto;html=1;entryX=0.5;entryY=0;entryDx=0;entryDy=0;entryPerimeter=0;" edge="1" parent="1" source="Svl2cvum7UI4GpYgN7TW-215" target="Svl2cvum7UI4GpYgN7TW-213">
          <mxGeometry relative="1" as="geometry">
            <Array as="points">
              <mxPoint x="300" y="1480" />
              <mxPoint x="400" y="1480" />
              <mxPoint x="400" y="1300" />
              <mxPoint x="140" y="1300" />
            </Array>
          </mxGeometry>
        </mxCell>
        <mxCell id="Svl2cvum7UI4GpYgN7TW-215" value="k = k + 1" style="rounded=1;whiteSpace=wrap;html=1;absoluteArcSize=1;arcSize=14;strokeWidth=2;" vertex="1" parent="1">
          <mxGeometry x="240" y="1400" width="120" height="40" as="geometry" />
        </mxCell>
        <mxCell id="Svl2cvum7UI4GpYgN7TW-216" value="" style="verticalLabelPosition=bottom;verticalAlign=top;html=1;shape=mxgraph.flowchart.parallel_mode;pointerEvents=1" vertex="1" parent="1">
          <mxGeometry x="92.5" y="1400" width="95" height="40" as="geometry" />
        </mxCell>
        <mxCell id="Svl2cvum7UI4GpYgN7TW-217" value="no" style="edgeStyle=orthogonalEdgeStyle;rounded=0;orthogonalLoop=1;jettySize=auto;html=1;" edge="1" parent="1" source="Svl2cvum7UI4GpYgN7TW-219" target="Svl2cvum7UI4GpYgN7TW-221">
          <mxGeometry x="-0.5" relative="1" as="geometry">
            <mxPoint as="offset" />
          </mxGeometry>
        </mxCell>
        <mxCell id="Svl2cvum7UI4GpYgN7TW-218" value="" style="edgeStyle=orthogonalEdgeStyle;rounded=0;orthogonalLoop=1;jettySize=auto;html=1;" edge="1" parent="1" source="Svl2cvum7UI4GpYgN7TW-219" target="Svl2cvum7UI4GpYgN7TW-222">
          <mxGeometry relative="1" as="geometry" />
        </mxCell>
        <mxCell id="Svl2cvum7UI4GpYgN7TW-219" value="arrH[k] =0" style="strokeWidth=2;html=1;shape=mxgraph.flowchart.decision;whiteSpace=wrap;" vertex="1" parent="1">
          <mxGeometry x="80" y="1540" width="120" height="40" as="geometry" />
        </mxCell>
        <mxCell id="Svl2cvum7UI4GpYgN7TW-220" style="edgeStyle=orthogonalEdgeStyle;rounded=0;orthogonalLoop=1;jettySize=auto;html=1;entryX=0.5;entryY=0;entryDx=0;entryDy=0;entryPerimeter=0;" edge="1" parent="1" source="Svl2cvum7UI4GpYgN7TW-221" target="Svl2cvum7UI4GpYgN7TW-219">
          <mxGeometry relative="1" as="geometry">
            <Array as="points">
              <mxPoint x="300" y="1700" />
              <mxPoint x="400" y="1700" />
              <mxPoint x="400" y="1520" />
              <mxPoint x="140" y="1520" />
            </Array>
          </mxGeometry>
        </mxCell>
        <mxCell id="Svl2cvum7UI4GpYgN7TW-221" value="k = (k + 1) % 11" style="rounded=1;whiteSpace=wrap;html=1;absoluteArcSize=1;arcSize=14;strokeWidth=2;" vertex="1" parent="1">
          <mxGeometry x="240" y="1620" width="120" height="40" as="geometry" />
        </mxCell>
        <mxCell id="Svl2cvum7UI4GpYgN7TW-222" value="" style="verticalLabelPosition=bottom;verticalAlign=top;html=1;shape=mxgraph.flowchart.parallel_mode;pointerEvents=1" vertex="1" parent="1">
          <mxGeometry x="92.5" y="1620" width="95" height="40" as="geometry" />
        </mxCell>
        <mxCell id="Svl2cvum7UI4GpYgN7TW-226" value="no" style="edgeStyle=orthogonalEdgeStyle;rounded=0;orthogonalLoop=1;jettySize=auto;html=1;" edge="1" parent="1" source="Svl2cvum7UI4GpYgN7TW-223" target="Svl2cvum7UI4GpYgN7TW-224">
          <mxGeometry relative="1" as="geometry" />
        </mxCell>
        <mxCell id="Svl2cvum7UI4GpYgN7TW-223" value="i &amp;lt; 7" style="strokeWidth=2;html=1;shape=mxgraph.flowchart.decision;whiteSpace=wrap;" vertex="1" parent="1">
          <mxGeometry x="80" y="1760" width="120" height="40" as="geometry" />
        </mxCell>
        <mxCell id="Svl2cvum7UI4GpYgN7TW-227" value="" style="edgeStyle=orthogonalEdgeStyle;rounded=0;orthogonalLoop=1;jettySize=auto;html=1;" edge="1" parent="1" source="Svl2cvum7UI4GpYgN7TW-224" target="Svl2cvum7UI4GpYgN7TW-225">
          <mxGeometry relative="1" as="geometry" />
        </mxCell>
        <mxCell id="Svl2cvum7UI4GpYgN7TW-224" value="arrD&lt;br&gt;arrH" style="strokeWidth=2;html=1;shape=mxgraph.flowchart.document2;whiteSpace=wrap;size=0.25;" vertex="1" parent="1">
          <mxGeometry x="80" y="1840" width="120" height="40" as="geometry" />
        </mxCell>
        <mxCell id="Svl2cvum7UI4GpYgN7TW-225" value="end" style="strokeWidth=2;html=1;shape=mxgraph.flowchart.start_1;whiteSpace=wrap;" vertex="1" parent="1">
          <mxGeometry x="80" y="1920" width="120" height="40" as="geometry" />
        </mxCell>
        <mxCell id="Svl2cvum7UI4GpYgN7TW-228" value="" style="edgeStyle=orthogonalEdgeStyle;rounded=0;orthogonalLoop=1;jettySize=auto;html=1;" edge="1" parent="1" source="Svl2cvum7UI4GpYgN7TW-229" target="Svl2cvum7UI4GpYgN7TW-232">
          <mxGeometry relative="1" as="geometry" />
        </mxCell>
        <mxCell id="Svl2cvum7UI4GpYgN7TW-229" value="k = arrD[i] % 11" style="rounded=1;whiteSpace=wrap;html=1;absoluteArcSize=1;arcSize=14;strokeWidth=2;fillColor=#fff2cc;strokeColor=#d6b656;" vertex="1" parent="1">
          <mxGeometry x="520" y="1600" width="120" height="40" as="geometry" />
        </mxCell>
        <mxCell id="Svl2cvum7UI4GpYgN7TW-230" value="yes" style="edgeStyle=orthogonalEdgeStyle;rounded=0;orthogonalLoop=1;jettySize=auto;html=1;" edge="1" parent="1" source="Svl2cvum7UI4GpYgN7TW-232" target="Svl2cvum7UI4GpYgN7TW-234">
          <mxGeometry relative="1" as="geometry" />
        </mxCell>
        <mxCell id="Svl2cvum7UI4GpYgN7TW-231" value="no" style="edgeStyle=orthogonalEdgeStyle;rounded=0;orthogonalLoop=1;jettySize=auto;html=1;entryX=0.5;entryY=0;entryDx=0;entryDy=0;" edge="1" parent="1" source="Svl2cvum7UI4GpYgN7TW-232" target="Svl2cvum7UI4GpYgN7TW-240">
          <mxGeometry relative="1" as="geometry">
            <mxPoint x="680" y="1700" as="targetPoint" />
          </mxGeometry>
        </mxCell>
        <mxCell id="Svl2cvum7UI4GpYgN7TW-232" value="arrH[k] =0" style="strokeWidth=2;html=1;shape=mxgraph.flowchart.decision;whiteSpace=wrap;fillColor=#f8cecc;strokeColor=#b85450;" vertex="1" parent="1">
          <mxGeometry x="520" y="1680" width="120" height="40" as="geometry" />
        </mxCell>
        <mxCell id="Svl2cvum7UI4GpYgN7TW-233" value="" style="edgeStyle=orthogonalEdgeStyle;rounded=0;orthogonalLoop=1;jettySize=auto;html=1;" edge="1" parent="1" source="Svl2cvum7UI4GpYgN7TW-234" target="Svl2cvum7UI4GpYgN7TW-239">
          <mxGeometry relative="1" as="geometry" />
        </mxCell>
        <mxCell id="Svl2cvum7UI4GpYgN7TW-234" value="arrH[k] = arrD[i]" style="rounded=1;whiteSpace=wrap;html=1;absoluteArcSize=1;arcSize=14;strokeWidth=2;fillColor=#fff2cc;strokeColor=#d6b656;" vertex="1" parent="1">
          <mxGeometry x="520" y="1759.29" width="120" height="40" as="geometry" />
        </mxCell>
        <mxCell id="Svl2cvum7UI4GpYgN7TW-236" value="yes" style="edgeStyle=orthogonalEdgeStyle;rounded=0;orthogonalLoop=1;jettySize=auto;html=1;" edge="1" parent="1" source="Svl2cvum7UI4GpYgN7TW-241" target="Svl2cvum7UI4GpYgN7TW-229">
          <mxGeometry relative="1" as="geometry" />
        </mxCell>
        <mxCell id="Svl2cvum7UI4GpYgN7TW-238" style="edgeStyle=orthogonalEdgeStyle;rounded=0;orthogonalLoop=1;jettySize=auto;html=1;" edge="1" parent="1" source="Svl2cvum7UI4GpYgN7TW-239">
          <mxGeometry relative="1" as="geometry">
            <mxPoint x="580" y="1500" as="targetPoint" />
            <Array as="points">
              <mxPoint x="580" y="1900" />
              <mxPoint x="840" y="1900" />
              <mxPoint x="840" y="1500" />
              <mxPoint x="580" y="1500" />
            </Array>
          </mxGeometry>
        </mxCell>
        <mxCell id="Svl2cvum7UI4GpYgN7TW-239" value="i = i + 1" style="rounded=1;whiteSpace=wrap;html=1;absoluteArcSize=1;arcSize=14;strokeWidth=2;fillColor=#fff2cc;strokeColor=#d6b656;" vertex="1" parent="1">
          <mxGeometry x="520" y="1840" width="120" height="40" as="geometry" />
        </mxCell>
        <mxCell id="Svl2cvum7UI4GpYgN7TW-250" style="edgeStyle=orthogonalEdgeStyle;rounded=0;orthogonalLoop=1;jettySize=auto;html=1;" edge="1" parent="1" source="Svl2cvum7UI4GpYgN7TW-240">
          <mxGeometry relative="1" as="geometry">
            <mxPoint x="580" y="1660" as="targetPoint" />
            <Array as="points">
              <mxPoint x="715" y="1800" />
              <mxPoint x="800" y="1800" />
              <mxPoint x="800" y="1660" />
            </Array>
          </mxGeometry>
        </mxCell>
        <mxCell id="Svl2cvum7UI4GpYgN7TW-240" value="k = (k + 1) % 11" style="rounded=1;whiteSpace=wrap;html=1;absoluteArcSize=1;arcSize=14;strokeWidth=2;fillColor=#e1d5e7;strokeColor=#9673a6;" vertex="1" parent="1">
          <mxGeometry x="655" y="1720" width="120" height="40" as="geometry" />
        </mxCell>
        <mxCell id="Svl2cvum7UI4GpYgN7TW-242" value="" style="edgeStyle=orthogonalEdgeStyle;rounded=0;orthogonalLoop=1;jettySize=auto;html=1;" edge="1" parent="1" target="Svl2cvum7UI4GpYgN7TW-241">
          <mxGeometry relative="1" as="geometry">
            <mxPoint x="580" y="1480" as="sourcePoint" />
            <mxPoint x="580" y="1600" as="targetPoint" />
          </mxGeometry>
        </mxCell>
        <mxCell id="Svl2cvum7UI4GpYgN7TW-247" value="no" style="edgeStyle=orthogonalEdgeStyle;rounded=0;orthogonalLoop=1;jettySize=auto;html=1;entryX=0.5;entryY=0;entryDx=0;entryDy=0;entryPerimeter=0;" edge="1" parent="1" source="Svl2cvum7UI4GpYgN7TW-241" target="Svl2cvum7UI4GpYgN7TW-245">
          <mxGeometry x="-0.625" relative="1" as="geometry">
            <Array as="points">
              <mxPoint x="440" y="1540" />
              <mxPoint x="440" y="1940" />
              <mxPoint x="580" y="1940" />
            </Array>
            <mxPoint as="offset" />
          </mxGeometry>
        </mxCell>
        <mxCell id="Svl2cvum7UI4GpYgN7TW-241" value="i &amp;lt; 7" style="strokeWidth=2;html=1;shape=mxgraph.flowchart.decision;whiteSpace=wrap;fillColor=#f8cecc;strokeColor=#b85450;" vertex="1" parent="1">
          <mxGeometry x="520" y="1520" width="120" height="40" as="geometry" />
        </mxCell>
        <mxCell id="Svl2cvum7UI4GpYgN7TW-244" value="" style="edgeStyle=orthogonalEdgeStyle;rounded=0;orthogonalLoop=1;jettySize=auto;html=1;" edge="1" parent="1" source="Svl2cvum7UI4GpYgN7TW-245" target="Svl2cvum7UI4GpYgN7TW-246">
          <mxGeometry relative="1" as="geometry" />
        </mxCell>
        <mxCell id="Svl2cvum7UI4GpYgN7TW-245" value="arrD&lt;br&gt;arrH" style="strokeWidth=2;html=1;shape=mxgraph.flowchart.document2;whiteSpace=wrap;size=0.25;fillColor=#dae8fc;strokeColor=#6c8ebf;" vertex="1" parent="1">
          <mxGeometry x="520" y="1960" width="120" height="40" as="geometry" />
        </mxCell>
        <mxCell id="Svl2cvum7UI4GpYgN7TW-246" value="end" style="strokeWidth=2;html=1;shape=mxgraph.flowchart.start_1;whiteSpace=wrap;fillColor=#f5f5f5;fontColor=#333333;strokeColor=#666666;" vertex="1" parent="1">
          <mxGeometry x="520" y="2040" width="120" height="40" as="geometry" />
        </mxCell>
        <mxCell id="Svl2cvum7UI4GpYgN7TW-249" value="" style="edgeStyle=orthogonalEdgeStyle;rounded=0;orthogonalLoop=1;jettySize=auto;html=1;" edge="1" parent="1" source="Svl2cvum7UI4GpYgN7TW-248">
          <mxGeometry relative="1" as="geometry">
            <mxPoint x="580" y="1440" as="targetPoint" />
          </mxGeometry>
        </mxCell>
        <mxCell id="Svl2cvum7UI4GpYgN7TW-248" value="start" style="strokeWidth=2;html=1;shape=mxgraph.flowchart.start_1;whiteSpace=wrap;fillColor=#f5f5f5;fontColor=#333333;strokeColor=#666666;" vertex="1" parent="1">
          <mxGeometry x="520" y="1360" width="120" height="40" as="geometry" />
        </mxCell>
        <mxCell id="Svl2cvum7UI4GpYgN7TW-251" value="arrD&lt;br&gt;arrH&lt;br&gt;i = 0" style="shape=parallelogram;html=1;strokeWidth=2;perimeter=parallelogramPerimeter;whiteSpace=wrap;rounded=1;arcSize=12;size=0.23;fillColor=#ffe6cc;strokeColor=#d79b00;" vertex="1" parent="1">
          <mxGeometry x="520" y="1440" width="120" height="40" as="geometry" />
        </mxCell>
        <mxCell id="Svl2cvum7UI4GpYgN7TW-263" value="" style="edgeStyle=orthogonalEdgeStyle;rounded=0;orthogonalLoop=1;jettySize=auto;html=1;" edge="1" parent="1" source="Svl2cvum7UI4GpYgN7TW-252" target="Svl2cvum7UI4GpYgN7TW-253">
          <mxGeometry relative="1" as="geometry" />
        </mxCell>
        <mxCell id="Svl2cvum7UI4GpYgN7TW-252" value="start" style="strokeWidth=2;html=1;shape=mxgraph.flowchart.start_1;whiteSpace=wrap;" vertex="1" parent="1">
          <mxGeometry x="80" y="2240" width="120" height="40" as="geometry" />
        </mxCell>
        <mxCell id="Svl2cvum7UI4GpYgN7TW-262" value="" style="edgeStyle=orthogonalEdgeStyle;rounded=0;orthogonalLoop=1;jettySize=auto;html=1;" edge="1" parent="1" source="Svl2cvum7UI4GpYgN7TW-253" target="Svl2cvum7UI4GpYgN7TW-254">
          <mxGeometry relative="1" as="geometry" />
        </mxCell>
        <mxCell id="Svl2cvum7UI4GpYgN7TW-253" value="x = 12" style="shape=parallelogram;html=1;strokeWidth=2;perimeter=parallelogramPerimeter;whiteSpace=wrap;rounded=1;arcSize=12;size=0.23;" vertex="1" parent="1">
          <mxGeometry x="80" y="2320" width="120" height="40" as="geometry" />
        </mxCell>
        <mxCell id="Svl2cvum7UI4GpYgN7TW-261" value="" style="edgeStyle=orthogonalEdgeStyle;rounded=0;orthogonalLoop=1;jettySize=auto;html=1;" edge="1" parent="1" source="Svl2cvum7UI4GpYgN7TW-254" target="Svl2cvum7UI4GpYgN7TW-255">
          <mxGeometry relative="1" as="geometry" />
        </mxCell>
        <mxCell id="Svl2cvum7UI4GpYgN7TW-254" value="k = x % 11" style="rounded=1;whiteSpace=wrap;html=1;absoluteArcSize=1;arcSize=14;strokeWidth=2;" vertex="1" parent="1">
          <mxGeometry x="80" y="2400" width="120" height="40" as="geometry" />
        </mxCell>
        <mxCell id="Svl2cvum7UI4GpYgN7TW-259" value="no" style="edgeStyle=orthogonalEdgeStyle;rounded=0;orthogonalLoop=1;jettySize=auto;html=1;" edge="1" parent="1" source="Svl2cvum7UI4GpYgN7TW-255" target="Svl2cvum7UI4GpYgN7TW-258">
          <mxGeometry relative="1" as="geometry" />
        </mxCell>
        <mxCell id="Svl2cvum7UI4GpYgN7TW-260" value="" style="edgeStyle=orthogonalEdgeStyle;rounded=0;orthogonalLoop=1;jettySize=auto;html=1;" edge="1" parent="1" source="Svl2cvum7UI4GpYgN7TW-255" target="Svl2cvum7UI4GpYgN7TW-256">
          <mxGeometry relative="1" as="geometry" />
        </mxCell>
        <mxCell id="Svl2cvum7UI4GpYgN7TW-255" value="arrH[k] = x" style="strokeWidth=2;html=1;shape=mxgraph.flowchart.decision;whiteSpace=wrap;" vertex="1" parent="1">
          <mxGeometry x="80" y="2480" width="120" height="40" as="geometry" />
        </mxCell>
        <mxCell id="Svl2cvum7UI4GpYgN7TW-264" value="" style="edgeStyle=orthogonalEdgeStyle;rounded=0;orthogonalLoop=1;jettySize=auto;html=1;" edge="1" parent="1" source="Svl2cvum7UI4GpYgN7TW-256" target="Svl2cvum7UI4GpYgN7TW-257">
          <mxGeometry relative="1" as="geometry" />
        </mxCell>
        <mxCell id="Svl2cvum7UI4GpYgN7TW-256" value="찾는 값 x는 k번째에 있습니다.&amp;nbsp;" style="strokeWidth=2;html=1;shape=mxgraph.flowchart.document2;whiteSpace=wrap;size=0.25;" vertex="1" parent="1">
          <mxGeometry x="80" y="2560" width="120" height="40" as="geometry" />
        </mxCell>
        <mxCell id="Svl2cvum7UI4GpYgN7TW-257" value="end" style="strokeWidth=2;html=1;shape=mxgraph.flowchart.start_1;whiteSpace=wrap;" vertex="1" parent="1">
          <mxGeometry x="80" y="2640" width="120" height="40" as="geometry" />
        </mxCell>
        <mxCell id="Svl2cvum7UI4GpYgN7TW-258" value="" style="verticalLabelPosition=bottom;verticalAlign=top;html=1;shape=mxgraph.flowchart.parallel_mode;pointerEvents=1" vertex="1" parent="1">
          <mxGeometry x="240" y="2480" width="95" height="40" as="geometry" />
        </mxCell>
        <mxCell id="Svl2cvum7UI4GpYgN7TW-265" value="" style="edgeStyle=orthogonalEdgeStyle;rounded=0;orthogonalLoop=1;jettySize=auto;html=1;" edge="1" parent="1" source="Svl2cvum7UI4GpYgN7TW-266" target="Svl2cvum7UI4GpYgN7TW-268">
          <mxGeometry relative="1" as="geometry" />
        </mxCell>
        <mxCell id="Svl2cvum7UI4GpYgN7TW-266" value="start" style="strokeWidth=2;html=1;shape=mxgraph.flowchart.start_1;whiteSpace=wrap;fillColor=#f5f5f5;fontColor=#333333;strokeColor=#666666;" vertex="1" parent="1">
          <mxGeometry x="520" y="2160" width="120" height="40" as="geometry" />
        </mxCell>
        <mxCell id="Svl2cvum7UI4GpYgN7TW-267" value="" style="edgeStyle=orthogonalEdgeStyle;rounded=0;orthogonalLoop=1;jettySize=auto;html=1;" edge="1" parent="1" source="Svl2cvum7UI4GpYgN7TW-268" target="Svl2cvum7UI4GpYgN7TW-270">
          <mxGeometry relative="1" as="geometry" />
        </mxCell>
        <mxCell id="Svl2cvum7UI4GpYgN7TW-268" value="x = 12" style="shape=parallelogram;html=1;strokeWidth=2;perimeter=parallelogramPerimeter;whiteSpace=wrap;rounded=1;arcSize=12;size=0.23;fillColor=#fff2cc;strokeColor=#d6b656;" vertex="1" parent="1">
          <mxGeometry x="520" y="2240" width="120" height="40" as="geometry" />
        </mxCell>
        <mxCell id="Svl2cvum7UI4GpYgN7TW-281" value="" style="edgeStyle=orthogonalEdgeStyle;rounded=0;orthogonalLoop=1;jettySize=auto;html=1;" edge="1" parent="1" source="Svl2cvum7UI4GpYgN7TW-270" target="Svl2cvum7UI4GpYgN7TW-280">
          <mxGeometry relative="1" as="geometry" />
        </mxCell>
        <mxCell id="Svl2cvum7UI4GpYgN7TW-270" value="k = x % 11" style="rounded=1;whiteSpace=wrap;html=1;absoluteArcSize=1;arcSize=14;strokeWidth=2;fillColor=#d5e8d4;strokeColor=#82b366;" vertex="1" parent="1">
          <mxGeometry x="520" y="2320" width="120" height="40" as="geometry" />
        </mxCell>
        <mxCell id="Svl2cvum7UI4GpYgN7TW-271" value="no" style="edgeStyle=orthogonalEdgeStyle;rounded=0;orthogonalLoop=1;jettySize=auto;html=1;entryX=0.5;entryY=0;entryDx=0;entryDy=0;" edge="1" parent="1" source="Svl2cvum7UI4GpYgN7TW-273" target="Svl2cvum7UI4GpYgN7TW-278">
          <mxGeometry x="-0.5" relative="1" as="geometry">
            <mxPoint x="680" y="2500" as="targetPoint" />
            <mxPoint as="offset" />
          </mxGeometry>
        </mxCell>
        <mxCell id="Svl2cvum7UI4GpYgN7TW-272" value="yes" style="edgeStyle=orthogonalEdgeStyle;rounded=0;orthogonalLoop=1;jettySize=auto;html=1;" edge="1" parent="1" source="Svl2cvum7UI4GpYgN7TW-273" target="Svl2cvum7UI4GpYgN7TW-275">
          <mxGeometry relative="1" as="geometry" />
        </mxCell>
        <mxCell id="Svl2cvum7UI4GpYgN7TW-273" value="arrH[k] = x" style="strokeWidth=2;html=1;shape=mxgraph.flowchart.decision;whiteSpace=wrap;fillColor=#f8cecc;strokeColor=#b85450;" vertex="1" parent="1">
          <mxGeometry x="520" y="2480" width="120" height="40" as="geometry" />
        </mxCell>
        <mxCell id="Svl2cvum7UI4GpYgN7TW-274" value="" style="edgeStyle=orthogonalEdgeStyle;rounded=0;orthogonalLoop=1;jettySize=auto;html=1;" edge="1" parent="1" source="Svl2cvum7UI4GpYgN7TW-275" target="Svl2cvum7UI4GpYgN7TW-276">
          <mxGeometry relative="1" as="geometry" />
        </mxCell>
        <mxCell id="Svl2cvum7UI4GpYgN7TW-275" value="찾는 값 x는 k번째에 있습니다.&amp;nbsp;" style="strokeWidth=2;html=1;shape=mxgraph.flowchart.document2;whiteSpace=wrap;size=0.25;fillColor=#dae8fc;strokeColor=#6c8ebf;" vertex="1" parent="1">
          <mxGeometry x="520" y="2560" width="120" height="40" as="geometry" />
        </mxCell>
        <mxCell id="Svl2cvum7UI4GpYgN7TW-276" value="end" style="strokeWidth=2;html=1;shape=mxgraph.flowchart.start_1;whiteSpace=wrap;fillColor=#f5f5f5;fontColor=#333333;strokeColor=#666666;" vertex="1" parent="1">
          <mxGeometry x="520" y="2640" width="120" height="40" as="geometry" />
        </mxCell>
        <mxCell id="Svl2cvum7UI4GpYgN7TW-279" style="edgeStyle=orthogonalEdgeStyle;rounded=0;orthogonalLoop=1;jettySize=auto;html=1;" edge="1" parent="1" source="Svl2cvum7UI4GpYgN7TW-278">
          <mxGeometry relative="1" as="geometry">
            <mxPoint x="580" y="2380" as="targetPoint" />
            <Array as="points">
              <mxPoint x="740" y="2620" />
              <mxPoint x="840" y="2620" />
              <mxPoint x="840" y="2380" />
            </Array>
          </mxGeometry>
        </mxCell>
        <mxCell id="Svl2cvum7UI4GpYgN7TW-278" value="k = (k + 1) % 11" style="rounded=1;whiteSpace=wrap;html=1;absoluteArcSize=1;arcSize=14;strokeWidth=2;fillColor=#e1d5e7;strokeColor=#9673a6;" vertex="1" parent="1">
          <mxGeometry x="680" y="2560" width="120" height="40" as="geometry" />
        </mxCell>
        <mxCell id="Svl2cvum7UI4GpYgN7TW-282" value="yes" style="edgeStyle=orthogonalEdgeStyle;rounded=0;orthogonalLoop=1;jettySize=auto;html=1;" edge="1" parent="1" source="Svl2cvum7UI4GpYgN7TW-280" target="Svl2cvum7UI4GpYgN7TW-273">
          <mxGeometry relative="1" as="geometry" />
        </mxCell>
        <mxCell id="Svl2cvum7UI4GpYgN7TW-284" value="no" style="edgeStyle=orthogonalEdgeStyle;rounded=0;orthogonalLoop=1;jettySize=auto;html=1;entryX=0.5;entryY=0;entryDx=0;entryDy=0;entryPerimeter=0;" edge="1" parent="1" source="Svl2cvum7UI4GpYgN7TW-280" target="Svl2cvum7UI4GpYgN7TW-283">
          <mxGeometry x="-0.6667" relative="1" as="geometry">
            <mxPoint as="offset" />
          </mxGeometry>
        </mxCell>
        <mxCell id="Svl2cvum7UI4GpYgN7TW-280" value="arrH[k] != 0" style="strokeWidth=2;html=1;shape=mxgraph.flowchart.decision;whiteSpace=wrap;fillColor=#f8cecc;strokeColor=#b85450;" vertex="1" parent="1">
          <mxGeometry x="520" y="2400" width="120" height="40" as="geometry" />
        </mxCell>
        <mxCell id="Svl2cvum7UI4GpYgN7TW-285" style="edgeStyle=orthogonalEdgeStyle;rounded=0;orthogonalLoop=1;jettySize=auto;html=1;" edge="1" parent="1" source="Svl2cvum7UI4GpYgN7TW-283">
          <mxGeometry relative="1" as="geometry">
            <mxPoint x="580" y="2620" as="targetPoint" />
            <Array as="points">
              <mxPoint x="420" y="2620" />
            </Array>
          </mxGeometry>
        </mxCell>
        <mxCell id="Svl2cvum7UI4GpYgN7TW-283" value="값이 존재하지 않습니다" style="strokeWidth=2;html=1;shape=mxgraph.flowchart.document2;whiteSpace=wrap;size=0.25;fillColor=#dae8fc;strokeColor=#6c8ebf;" vertex="1" parent="1">
          <mxGeometry x="360" y="2560" width="120" height="40" as="geometry" />
        </mxCell>
      </root>
    </mxGraphModel>
  </diagram>
</mxfile>
